<?xml version="1.0" standalone="no"?>
<!DOCTYPE svg PUBLIC "-//W3C//DTD SVG 20010904//EN"
 "http://www.w3.org/TR/2001/REC-SVG-20010904/DTD/svg10.dtd">
<svg version="1.0" xmlns="http://www.w3.org/2000/svg"
 width="256.000000pt" height="256.000000pt" viewBox="0 0 256.000000 256.000000"
 preserveAspectRatio="xMidYMid meet">

<g transform="translate(0.000000,256.000000) scale(0.100000,-0.100000)"
fill="#000000" stroke="none">
<path d="M832 2295 c-7 -15 -8 -24 -2 -20 7 4 10 -61 10 -190 l0 -195 -27 -12
c-16 -6 -91 -40 -167 -75 -77 -35 -141 -63 -143 -63 -2 0 -1 6 2 13 4 6 -1 3
-9 -7 -9 -11 -16 -23 -16 -26 0 -8 340 -204 360 -208 9 -2 82 35 163 82 208
120 207 119 207 128 0 8 -345 573 -360 591 -4 4 -12 -4 -18 -18z"/>
<path d="M760 2180 c-6 -11 -8 -20 -6 -20 3 0 10 9 16 20 6 11 8 20 6 20 -3 0
-10 -9 -16 -20z"/>
<path d="M680 2050 c-6 -11 -8 -20 -6 -20 3 0 10 9 16 20 6 11 8 20 6 20 -3 0
-10 -9 -16 -20z"/>
<path d="M562 1860 c-18 -29 -15 -38 4 -12 9 13 14 25 12 27 -2 2 -9 -5 -16
-15z"/>
<path d="M1010 1528 l-175 -101 3 -130 c2 -94 0 -127 -8 -122 -7 4 -7 -1 2
-14 7 -11 16 -17 19 -13 7 6 271 370 327 450 13 17 20 32 15 32 -4 -1 -87 -46
-183 -102z"/>
<path d="M516 1595 c19 -29 21 -30 21 -11 0 7 -9 19 -19 25 -18 11 -18 11 -2
-14z"/>
<path d="M550 1546 c0 -2 8 -10 18 -17 15 -13 16 -12 3 4 -13 16 -21 21 -21
13z"/>
<path d="M680 1366 c0 -2 8 -10 18 -17 15 -13 16 -12 3 4 -13 16 -21 21 -21
13z"/>
<path d="M790 1216 c0 -2 8 -10 18 -17 15 -13 16 -12 3 4 -13 16 -21 21 -21
13z"/>
</g>
</svg>
